<svg width="32" height="32" viewBox="0 0 32 32" fill="none" xmlns="http://www.w3.org/2000/svg">
<path d="M16 32C24.8366 32 32 24.8366 32 16C32 7.16344 24.8366 0 16 0C7.16344 0 0 7.16344 0 16C0 24.8366 7.16344 32 16 32Z" fill="#FFF8DD"/>
<path d="M16 32C24.8366 32 32 24.8366 32 16C32 7.16344 24.8366 0 16 0C7.16344 0 0 7.16344 0 16C0 24.8366 7.16344 32 16 32Z" fill="#FFF8DD"/>
<path fill-rule="evenodd" clip-rule="evenodd" d="M0 16H32C32 24.8366 24.8366 32 16 32C7.16344 32 0 24.8366 0 16Z" fill="#202205"/>
<path d="M16.0005 16H16C16.0509 16 19.0877 19.5752 19.0877 21.2296C19.0877 22.0485 18.7624 22.8338 18.1833 23.4129C17.6043 23.992 16.8189 24.3172 16 24.3172C15.1811 24.3172 14.3957 23.992 13.8167 23.4129C13.2376 22.8338 12.9123 22.0485 12.9123 21.2296C12.9123 19.5808 15.9435 16 16 16H4C4 19.1826 5.26428 22.2348 7.51472 24.4853C9.76515 26.7357 12.8174 28 16 28C19.1826 28 22.2349 26.7357 24.4853 24.4853C26.7357 22.2348 28 19.1826 28 16H16.0005Z" fill="#FFF8DD"/>
<path d="M24.25 7.375C22.0664 7.37513 19.9719 8.28302 18.4255 9.89974C16.8791 11.5164 16.0069 13.7101 16 16C18.1836 15.9999 20.2781 15.092 21.8245 13.4753C23.3709 11.8586 24.2431 9.6649 24.25 7.375Z" fill="#41A65B"/>
<path d="M7.37512 7.375C9.65797 7.37513 11.8477 8.28302 13.4644 9.89974C15.0811 11.5164 15.993 13.7101 16.0001 16C13.7173 15.9999 11.5276 15.092 9.91088 13.4753C8.29417 11.8586 7.38231 9.66491 7.37512 7.375Z" fill="#41A65B"/>
</svg>
